<svg width="28" height="28" viewBox="0 0 28 28" fill="none" xmlns="http://www.w3.org/2000/svg">
<g filter="url(#filter0_ii_6_45)">
<path d="M27.995 14C27.995 17.79 26.485 21.23 24.025 23.76C23.635 24.16 23.225 24.54 22.785 24.89C20.375 26.84 17.315 28 13.995 28C10.675 28 7.61499 26.84 5.20499 24.89C4.76499 24.54 4.355 24.16 3.965 23.76C1.505 21.23 -0.00499916 17.79 -0.00499916 14C-0.00499916 6.27 6.265 0 13.995 0C21.725 0 27.995 6.27 27.995 14Z" fill="url(#paint0_linear_6_45)"/>
</g>
<g filter="url(#filter1_iii_6_45)">
<path fill-rule="evenodd" clip-rule="evenodd" d="M9.0332 18.5501L5.90968 23.3656C5.69466 23.6672 5.39612 24.0379 5.39612 24.406C5.39612 25.0195 5.96267 25.2998 6.5875 25.2998H21.5434C22.047 25.2998 22.5839 25.0062 22.5839 24.3927C22.5839 24.0068 22.3174 23.6775 22.1037 23.3789L18.9648 18.5501C19.6372 17.8405 8.8815 18.39 9.0332 18.5501ZM20.3095 23.6234L19.9504 23.1336C19.7899 22.9149 19.5321 22.7852 19.2575 22.7852H8.7225C8.4479 22.7852 8.1901 22.9149 8.0296 23.1336L7.67048 23.6234H20.3095ZM9.0332 21.5224C8.9014 21.7327 8.7876 21.895 8.7471 21.9499H19.2256C19.1982 21.9063 19.1076 21.7677 18.9648 21.5628C18.7864 21.3068 18.6216 21.1046 18.1618 21.1046H9.8637C9.6166 21.1046 9.1979 21.2596 9.0332 21.5224Z" fill="url(#paint1_linear_6_45)"/>
</g>
<path fill-rule="evenodd" clip-rule="evenodd" d="M9.0332 18.5501L5.90968 23.3656C5.69466 23.6672 5.39612 24.0379 5.39612 24.406C5.39612 25.0195 5.96267 25.2998 6.5875 25.2998H21.5434C22.047 25.2998 22.5839 25.0062 22.5839 24.3927C22.5839 24.0068 22.3174 23.6775 22.1037 23.3789L18.9648 18.5501C19.6372 17.8405 8.8815 18.39 9.0332 18.5501ZM20.3095 23.6234L19.9504 23.1336C19.7899 22.9149 19.5321 22.7852 19.2575 22.7852H8.7225C8.4479 22.7852 8.1901 22.9149 8.0296 23.1336L7.67048 23.6234H20.3095ZM9.0332 21.5224C8.9014 21.7327 8.7876 21.895 8.7471 21.9499H19.2256C19.1982 21.9063 19.1076 21.7677 18.9648 21.5628C18.7864 21.3068 18.6216 21.1046 18.1618 21.1046H9.8637C9.6166 21.1046 9.1979 21.2596 9.0332 21.5224Z" fill="url(#paint2_linear_6_45)"/>
<path fill-rule="evenodd" clip-rule="evenodd" d="M9.0332 18.5501L5.90968 23.3656C5.69466 23.6672 5.39612 24.0379 5.39612 24.406C5.39612 25.0195 5.96267 25.2998 6.5875 25.2998H21.5434C22.047 25.2998 22.5839 25.0062 22.5839 24.3927C22.5839 24.0068 22.3174 23.6775 22.1037 23.3789L18.9648 18.5501C19.6372 17.8405 8.8815 18.39 9.0332 18.5501ZM20.3095 23.6234L19.9504 23.1336C19.7899 22.9149 19.5321 22.7852 19.2575 22.7852H8.7225C8.4479 22.7852 8.1901 22.9149 8.0296 23.1336L7.67048 23.6234H20.3095ZM9.0332 21.5224C8.9014 21.7327 8.7876 21.895 8.7471 21.9499H19.2256C19.1982 21.9063 19.1076 21.7677 18.9648 21.5628C18.7864 21.3068 18.6216 21.1046 18.1618 21.1046H9.8637C9.6166 21.1046 9.1979 21.2596 9.0332 21.5224Z" fill="url(#paint3_radial_6_45)"/>
<path fill-rule="evenodd" clip-rule="evenodd" d="M9.0332 18.5501L5.90968 23.3656C5.69466 23.6672 5.39612 24.0379 5.39612 24.406C5.39612 25.0195 5.96267 25.2998 6.5875 25.2998H21.5434C22.047 25.2998 22.5839 25.0062 22.5839 24.3927C22.5839 24.0068 22.3174 23.6775 22.1037 23.3789L18.9648 18.5501C19.6372 17.8405 8.8815 18.39 9.0332 18.5501ZM20.3095 23.6234L19.9504 23.1336C19.7899 22.9149 19.5321 22.7852 19.2575 22.7852H8.7225C8.4479 22.7852 8.1901 22.9149 8.0296 23.1336L7.67048 23.6234H20.3095ZM9.0332 21.5224C8.9014 21.7327 8.7876 21.895 8.7471 21.9499H19.2256C19.1982 21.9063 19.1076 21.7677 18.9648 21.5628C18.7864 21.3068 18.6216 21.1046 18.1618 21.1046H9.8637C9.6166 21.1046 9.1979 21.2596 9.0332 21.5224Z" fill="url(#paint4_radial_6_45)"/>
<path fill-rule="evenodd" clip-rule="evenodd" d="M9.0332 18.5501L5.90968 23.3656C5.69466 23.6672 5.39612 24.0379 5.39612 24.406C5.39612 25.0195 5.96267 25.2998 6.5875 25.2998H21.5434C22.047 25.2998 22.5839 25.0062 22.5839 24.3927C22.5839 24.0068 22.3174 23.6775 22.1037 23.3789L18.9648 18.5501C19.6372 17.8405 8.8815 18.39 9.0332 18.5501ZM20.3095 23.6234L19.9504 23.1336C19.7899 22.9149 19.5321 22.7852 19.2575 22.7852H8.7225C8.4479 22.7852 8.1901 22.9149 8.0296 23.1336L7.67048 23.6234H20.3095ZM9.0332 21.5224C8.9014 21.7327 8.7876 21.895 8.7471 21.9499H19.2256C19.1982 21.9063 19.1076 21.7677 18.9648 21.5628C18.7864 21.3068 18.6216 21.1046 18.1618 21.1046H9.8637C9.6166 21.1046 9.1979 21.2596 9.0332 21.5224Z" fill="url(#paint5_linear_6_45)"/>
<g filter="url(#filter2_ii_6_45)">
<path d="M21.995 15.049V4.78998C21.995 3.79998 21.185 3 20.185 3H7.815C6.815 3 6.005 3.79998 6.005 4.78998V15.049H21.995Z" fill="#E5CFFC"/>
</g>
<g filter="url(#filter3_f_6_45)">
<path d="M18.2225 20.4383C18.2225 20.4383 19.1197 21.3769 19.382 21.8246C19.9617 21.2803 20.7899 21.653 20.7899 21.653C20.6169 21.4123 19.8163 20.3028 19.5621 19.947C19.3079 19.5911 18.8687 19.5378 18.5057 19.7907C18.296 19.9369 18.1209 20.2477 18.2225 20.4383Z" fill="url(#paint6_linear_6_45)"/>
</g>
<g filter="url(#filter4_f_6_45)">
<path d="M9.6888 20.4383C9.6888 20.4383 8.7916 21.3769 8.5293 21.8246C7.94962 21.2803 7.12145 21.653 7.12145 21.653C7.29443 21.4123 8.095 20.3028 8.3492 19.947C8.6034 19.5911 9.0426 19.5378 9.4056 19.7907C9.6153 19.9369 9.7904 20.2477 9.6888 20.4383Z" fill="url(#paint7_linear_6_45)"/>
</g>
<g filter="url(#filter5_ii_6_45)">
<path d="M5.995 14V17.24C5.995 19.32 7.70499 21 9.805 21H18.175C20.285 21 21.985 19.32 21.985 17.24V14H5.995Z" fill="url(#paint8_linear_6_45)"/>
</g>
<path d="M10.995 18H8.995C8.445 18 7.995 17.55 7.995 17C7.995 16.45 8.445 16 8.995 16H10.995C11.545 16 11.995 16.45 11.995 17C11.995 17.56 11.555 18 10.995 18Z" fill="url(#paint9_radial_6_45)"/>
<path d="M18.995 18H16.995C16.445 18 15.995 17.55 15.995 17C15.995 16.45 16.445 16 16.995 16H18.995C19.545 16 19.995 16.45 19.995 17C19.995 17.56 19.555 18 18.995 18Z" fill="url(#paint10_radial_6_45)"/>
<g filter="url(#filter6_i_6_45)">
<path d="M17.495 5H10.495C10.215 5 9.995 4.78 9.995 4.5C9.995 4.22 10.215 4 10.495 4H17.495C17.775 4 17.995 4.22 17.995 4.5C17.995 4.78 17.775 5 17.495 5Z" fill="url(#paint11_linear_6_45)"/>
<path d="M17.495 5H10.495C10.215 5 9.995 4.78 9.995 4.5C9.995 4.22 10.215 4 10.495 4H17.495C17.775 4 17.995 4.22 17.995 4.5C17.995 4.78 17.775 5 17.495 5Z" fill="url(#paint12_linear_6_45)"/>
<path d="M17.495 5H10.495C10.215 5 9.995 4.78 9.995 4.5C9.995 4.22 10.215 4 10.495 4H17.495C17.775 4 17.995 4.22 17.995 4.5C17.995 4.78 17.775 5 17.495 5Z" fill="url(#paint13_linear_6_45)"/>
</g>
<path d="M18.045 15H9.955C8.875 15 7.995 14.12 7.995 13.04V7.94998C7.995 6.86998 8.875 5.98999 9.955 5.98999H18.045C19.125 5.98999 20.005 6.86998 20.005 7.94998V13.04C19.995 14.13 19.125 15 18.045 15Z" fill="url(#paint14_linear_6_45)"/>
<g filter="url(#filter7_ii_6_45)">
<path d="M17.535 14H10.465C9.655 14 8.995 13.34 8.995 12.53V8.46C8.995 7.64999 9.655 6.98999 10.465 6.98999H17.535C18.345 6.98999 19.005 7.64999 19.005 8.46V12.53C18.995 13.35 18.345 14 17.535 14Z" fill="url(#paint15_linear_6_45)"/>
</g>
<g filter="url(#filter8_f_6_45)">
<path d="M19.7667 22.5617L20.5419 23.6674L22.1687 23.9088C21.8764 23.5106 21.0773 22.3871 20.8231 22.0312C20.5689 21.6754 20.1297 21.622 19.7667 21.875C19.557 22.0211 19.665 22.3711 19.7667 22.5617Z" fill="url(#paint16_linear_6_45)"/>
</g>
<g filter="url(#filter9_f_6_45)">
<path d="M8.1446 22.5617L7.36932 23.6674L5.74259 23.9088C6.03489 23.5106 6.83396 22.3871 7.08813 22.0312C7.34231 21.6754 7.78153 21.622 8.1446 21.875C8.3543 22.0211 8.2462 22.3711 8.1446 22.5617Z" fill="url(#paint17_linear_6_45)"/>
</g>
<g filter="url(#filter10_f_6_45)">
<path d="M6.55426 24.3262H21.4458" stroke="#C0B1CF" stroke-width="0.5" stroke-linecap="round"/>
</g>
<defs>
<filter id="filter0_ii_6_45" x="-0.754999" y="-0.75" width="29.5" height="29.5" filterUnits="userSpaceOnUse" color-interpolation-filters="sRGB">
<feFlood flood-opacity="0" result="BackgroundImageFix"/>
<feBlend mode="normal" in="SourceGraphic" in2="BackgroundImageFix" result="shape"/>
<feColorMatrix in="SourceAlpha" type="matrix" values="0 0 0 0 0 0 0 0 0 0 0 0 0 0 0 0 0 0 127 0" result="hardAlpha"/>
<feOffset dx="0.75" dy="-0.75"/>
<feGaussianBlur stdDeviation="0.75"/>
<feComposite in2="hardAlpha" operator="arithmetic" k2="-1" k3="1"/>
<feColorMatrix type="matrix" values="0 0 0 0 0.215686 0 0 0 0 0.133333 0 0 0 0 0.317647 0 0 0 1 0"/>
<feBlend mode="normal" in2="shape" result="effect1_innerShadow_6_45"/>
<feColorMatrix in="SourceAlpha" type="matrix" values="0 0 0 0 0 0 0 0 0 0 0 0 0 0 0 0 0 0 127 0" result="hardAlpha"/>
<feOffset dx="-0.75" dy="0.75"/>
<feGaussianBlur stdDeviation="0.75"/>
<feComposite in2="hardAlpha" operator="arithmetic" k2="-1" k3="1"/>
<feColorMatrix type="matrix" values="0 0 0 0 0.258824 0 0 0 0 0.254902 0 0 0 0 0.262745 0 0 0 1 0"/>
<feBlend mode="normal" in2="effect1_innerShadow_6_45" result="effect2_innerShadow_6_45"/>
</filter>
<filter id="filter1_iii_6_45" x="4.99612" y="18.046" width="17.9878" height="7.25376" filterUnits="userSpaceOnUse" color-interpolation-filters="sRGB">
<feFlood flood-opacity="0" result="BackgroundImageFix"/>
<feBlend mode="normal" in="SourceGraphic" in2="BackgroundImageFix" result="shape"/>
<feColorMatrix in="SourceAlpha" type="matrix" values="0 0 0 0 0 0 0 0 0 0 0 0 0 0 0 0 0 0 127 0" result="hardAlpha"/>
<feOffset dx="0.4"/>
<feGaussianBlur stdDeviation="0.4"/>
<feComposite in2="hardAlpha" operator="arithmetic" k2="-1" k3="1"/>
<feColorMatrix type="matrix" values="0 0 0 0 0.490196 0 0 0 0 0.298039 0 0 0 0 0.403922 0 0 0 1 0"/>
<feBlend mode="normal" in2="shape" result="effect1_innerShadow_6_45"/>
<feColorMatrix in="SourceAlpha" type="matrix" values="0 0 0 0 0 0 0 0 0 0 0 0 0 0 0 0 0 0 127 0" result="hardAlpha"/>
<feOffset dx="-0.4"/>
<feGaussianBlur stdDeviation="0.4"/>
<feComposite in2="hardAlpha" operator="arithmetic" k2="-1" k3="1"/>
<feColorMatrix type="matrix" values="0 0 0 0 0.854902 0 0 0 0 0.823529 0 0 0 0 0.882353 0 0 0 1 0"/>
<feBlend mode="normal" in2="effect1_innerShadow_6_45" result="effect2_innerShadow_6_45"/>
<feColorMatrix in="SourceAlpha" type="matrix" values="0 0 0 0 0 0 0 0 0 0 0 0 0 0 0 0 0 0 127 0" result="hardAlpha"/>
<feOffset dy="-0.15"/>
<feGaussianBlur stdDeviation="0.2"/>
<feComposite in2="hardAlpha" operator="arithmetic" k2="-1" k3="1"/>
<feColorMatrix type="matrix" values="0 0 0 0 0.733333 0 0 0 0 0.462745 0 0 0 0 0.952941 0 0 0 1 0"/>
<feBlend mode="normal" in2="effect2_innerShadow_6_45" result="effect3_innerShadow_6_45"/>
</filter>
<filter id="filter2_ii_6_45" x="5.255" y="3" width="17.49" height="12.799" filterUnits="userSpaceOnUse" color-interpolation-filters="sRGB">
<feFlood flood-opacity="0" result="BackgroundImageFix"/>
<feBlend mode="normal" in="SourceGraphic" in2="BackgroundImageFix" result="shape"/>
<feColorMatrix in="SourceAlpha" type="matrix" values="0 0 0 0 0 0 0 0 0 0 0 0 0 0 0 0 0 0 127 0" result="hardAlpha"/>
<feOffset dx="-0.75" dy="0.75"/>
<feGaussianBlur stdDeviation="0.625"/>
<feComposite in2="hardAlpha" operator="arithmetic" k2="-1" k3="1"/>
<feColorMatrix type="matrix" values="0 0 0 0 1 0 0 0 0 0.988235 0 0 0 0 1 0 0 0 1 0"/>
<feBlend mode="normal" in2="shape" result="effect1_innerShadow_6_45"/>
<feColorMatrix in="SourceAlpha" type="matrix" values="0 0 0 0 0 0 0 0 0 0 0 0 0 0 0 0 0 0 127 0" result="hardAlpha"/>
<feOffset dx="0.75"/>
<feGaussianBlur stdDeviation="1"/>
<feComposite in2="hardAlpha" operator="arithmetic" k2="-1" k3="1"/>
<feColorMatrix type="matrix" values="0 0 0 0 0.537255 0 0 0 0 0.462745 0 0 0 0 0.615686 0 0 0 1 0"/>
<feBlend mode="normal" in2="effect1_innerShadow_6_45" result="effect2_innerShadow_6_45"/>
</filter>
<filter id="filter3_f_6_45" x="17.9428" y="19.3838" width="3.09709" height="2.69081" filterUnits="userSpaceOnUse" color-interpolation-filters="sRGB">
<feFlood flood-opacity="0" result="BackgroundImageFix"/>
<feBlend mode="normal" in="SourceGraphic" in2="BackgroundImageFix" result="shape"/>
<feGaussianBlur stdDeviation="0.125" result="effect1_foregroundBlur_6_45"/>
</filter>
<filter id="filter4_f_6_45" x="6.87145" y="19.3838" width="3.09704" height="2.69081" filterUnits="userSpaceOnUse" color-interpolation-filters="sRGB">
<feFlood flood-opacity="0" result="BackgroundImageFix"/>
<feBlend mode="normal" in="SourceGraphic" in2="BackgroundImageFix" result="shape"/>
<feGaussianBlur stdDeviation="0.125" result="effect1_foregroundBlur_6_45"/>
</filter>
<filter id="filter5_ii_6_45" x="5.495" y="14" width="16.99" height="7" filterUnits="userSpaceOnUse" color-interpolation-filters="sRGB">
<feFlood flood-opacity="0" result="BackgroundImageFix"/>
<feBlend mode="normal" in="SourceGraphic" in2="BackgroundImageFix" result="shape"/>
<feColorMatrix in="SourceAlpha" type="matrix" values="0 0 0 0 0 0 0 0 0 0 0 0 0 0 0 0 0 0 127 0" result="hardAlpha"/>
<feOffset dx="0.5"/>
<feGaussianBlur stdDeviation="0.5"/>
<feComposite in2="hardAlpha" operator="arithmetic" k2="-1" k3="1"/>
<feColorMatrix type="matrix" values="0 0 0 0 0.690196 0 0 0 0 0.156863 0 0 0 0 0.454902 0 0 0 1 0"/>
<feBlend mode="normal" in2="shape" result="effect1_innerShadow_6_45"/>
<feColorMatrix in="SourceAlpha" type="matrix" values="0 0 0 0 0 0 0 0 0 0 0 0 0 0 0 0 0 0 127 0" result="hardAlpha"/>
<feOffset dx="-0.5"/>
<feGaussianBlur stdDeviation="0.5"/>
<feComposite in2="hardAlpha" operator="arithmetic" k2="-1" k3="1"/>
<feColorMatrix type="matrix" values="0 0 0 0 1 0 0 0 0 0.305882 0 0 0 0 0.380392 0 0 0 1 0"/>
<feBlend mode="normal" in2="effect1_innerShadow_6_45" result="effect2_innerShadow_6_45"/>
</filter>
<filter id="filter6_i_6_45" x="9.795" y="4" width="8.2" height="1.2" filterUnits="userSpaceOnUse" color-interpolation-filters="sRGB">
<feFlood flood-opacity="0" result="BackgroundImageFix"/>
<feBlend mode="normal" in="SourceGraphic" in2="BackgroundImageFix" result="shape"/>
<feColorMatrix in="SourceAlpha" type="matrix" values="0 0 0 0 0 0 0 0 0 0 0 0 0 0 0 0 0 0 127 0" result="hardAlpha"/>
<feOffset dx="-0.2" dy="0.2"/>
<feGaussianBlur stdDeviation="0.125"/>
<feComposite in2="hardAlpha" operator="arithmetic" k2="-1" k3="1"/>
<feColorMatrix type="matrix" values="0 0 0 0 0.266667 0 0 0 0 0.192157 0 0 0 0 0.333333 0 0 0 1 0"/>
<feBlend mode="normal" in2="shape" result="effect1_innerShadow_6_45"/>
</filter>
<filter id="filter7_ii_6_45" x="8.595" y="6.48999" width="10.91" height="7.91001" filterUnits="userSpaceOnUse" color-interpolation-filters="sRGB">
<feFlood flood-opacity="0" result="BackgroundImageFix"/>
<feBlend mode="normal" in="SourceGraphic" in2="BackgroundImageFix" result="shape"/>
<feColorMatrix in="SourceAlpha" type="matrix" values="0 0 0 0 0 0 0 0 0 0 0 0 0 0 0 0 0 0 127 0" result="hardAlpha"/>
<feOffset dx="-0.4" dy="0.4"/>
<feGaussianBlur stdDeviation="0.25"/>
<feComposite in2="hardAlpha" operator="arithmetic" k2="-1" k3="1"/>
<feColorMatrix type="matrix" values="0 0 0 0 0.27451 0 0 0 0 0.647059 0 0 0 0 1 0 0 0 1 0"/>
<feBlend mode="normal" in2="shape" result="effect1_innerShadow_6_45"/>
<feColorMatrix in="SourceAlpha" type="matrix" values="0 0 0 0 0 0 0 0 0 0 0 0 0 0 0 0 0 0 127 0" result="hardAlpha"/>
<feOffset dx="0.5" dy="-0.5"/>
<feGaussianBlur stdDeviation="0.3"/>
<feComposite in2="hardAlpha" operator="arithmetic" k2="-1" k3="1"/>
<feColorMatrix type="matrix" values="0 0 0 0 0.341176 0 0 0 0 0.866667 0 0 0 0 1 0 0 0 1 0"/>
<feBlend mode="normal" in2="effect1_innerShadow_6_45" result="effect2_innerShadow_6_45"/>
</filter>
<filter id="filter8_f_6_45" x="19.1466" y="21.218" width="3.5221" height="3.19076" filterUnits="userSpaceOnUse" color-interpolation-filters="sRGB">
<feFlood flood-opacity="0" result="BackgroundImageFix"/>
<feBlend mode="normal" in="SourceGraphic" in2="BackgroundImageFix" result="shape"/>
<feGaussianBlur stdDeviation="0.25" result="effect1_foregroundBlur_6_45"/>
</filter>
<filter id="filter9_f_6_45" x="5.24259" y="21.218" width="3.52208" height="3.19076" filterUnits="userSpaceOnUse" color-interpolation-filters="sRGB">
<feFlood flood-opacity="0" result="BackgroundImageFix"/>
<feBlend mode="normal" in="SourceGraphic" in2="BackgroundImageFix" result="shape"/>
<feGaussianBlur stdDeviation="0.25" result="effect1_foregroundBlur_6_45"/>
</filter>
<filter id="filter10_f_6_45" x="5.80426" y="23.5762" width="16.3915" height="1.5" filterUnits="userSpaceOnUse" color-interpolation-filters="sRGB">
<feFlood flood-opacity="0" result="BackgroundImageFix"/>
<feBlend mode="normal" in="SourceGraphic" in2="BackgroundImageFix" result="shape"/>
<feGaussianBlur stdDeviation="0.25" result="effect1_foregroundBlur_6_45"/>
</filter>
<linearGradient id="paint0_linear_6_45" x1="6.26951" y1="20.8823" x2="18.1323" y2="8.6274" gradientUnits="userSpaceOnUse">
<stop stop-color="#432367"/>
<stop offset="1" stop-color="#2C2632"/>
</linearGradient>
<linearGradient id="paint1_linear_6_45" x1="13.99" y1="19.3145" x2="13.99" y2="25.2998" gradientUnits="userSpaceOnUse">
<stop offset="0.605085" stop-color="#8F7A87"/>
<stop offset="1" stop-color="#BAAACA"/>
</linearGradient>
<linearGradient id="paint2_linear_6_45" x1="15.0136" y1="25.777" x2="15.0136" y2="23.947" gradientUnits="userSpaceOnUse">
<stop stop-color="#BC77F3"/>
<stop offset="1" stop-color="#BC77F3" stop-opacity="0"/>
</linearGradient>
<radialGradient id="paint3_radial_6_45" cx="0" cy="0" r="1" gradientUnits="userSpaceOnUse" gradientTransform="translate(18.3295 20.6796) rotate(43.218) scale(2.0225 1.37165)">
<stop offset="0.196262" stop-color="#674373"/>
<stop offset="1" stop-color="#674373" stop-opacity="0"/>
</radialGradient>
<radialGradient id="paint4_radial_6_45" cx="0" cy="0" r="1" gradientUnits="userSpaceOnUse" gradientTransform="translate(9.9689 20.4127) rotate(146.036) scale(2.38989 1.62081)">
<stop offset="0.196262" stop-color="#674373"/>
<stop offset="1" stop-color="#674373" stop-opacity="0"/>
</radialGradient>
<linearGradient id="paint5_linear_6_45" x1="11.951" y1="20.3619" x2="11.951" y2="23.2335" gradientUnits="userSpaceOnUse">
<stop stop-color="#674373"/>
<stop offset="1" stop-color="#674373" stop-opacity="0"/>
</linearGradient>
<linearGradient id="paint6_linear_6_45" x1="19.2439" y1="21.1561" x2="20.2516" y2="20.9766" gradientUnits="userSpaceOnUse">
<stop offset="0.229388" stop-color="#6E3E5A"/>
<stop offset="1" stop-color="#865761" stop-opacity="0"/>
</linearGradient>
<linearGradient id="paint7_linear_6_45" x1="8.9194" y1="20.3831" x2="7.56673" y2="21.8246" gradientUnits="userSpaceOnUse">
<stop offset="0.229388" stop-color="#311827"/>
<stop offset="1" stop-color="#572046" stop-opacity="0"/>
</linearGradient>
<linearGradient id="paint8_linear_6_45" x1="8.9166" y1="18.0882" x2="19.3087" y2="18.0882" gradientUnits="userSpaceOnUse">
<stop stop-color="#DB2998"/>
<stop offset="1" stop-color="#FF2B5D"/>
</linearGradient>
<radialGradient id="paint9_radial_6_45" cx="0" cy="0" r="1" gradientUnits="userSpaceOnUse" gradientTransform="translate(8.5857 17.7187) scale(3.03431 2.33027)">
<stop stop-color="#FFA805"/>
<stop offset="1" stop-color="#FE7A0C"/>
</radialGradient>
<radialGradient id="paint10_radial_6_45" cx="0" cy="0" r="1" gradientUnits="userSpaceOnUse" gradientTransform="translate(16.3387 17.7187) scale(3.28125 3.21875)">
<stop stop-color="#FFAD27"/>
<stop offset="1" stop-color="#FF6026"/>
</radialGradient>
<linearGradient id="paint11_linear_6_45" x1="9.995" y1="5" x2="18.1316" y2="5" gradientUnits="userSpaceOnUse">
<stop stop-color="#5C5A5F"/>
<stop offset="1" stop-color="#615E65"/>
</linearGradient>
<linearGradient id="paint12_linear_6_45" x1="9.8647" y1="5" x2="10.6001" y2="5" gradientUnits="userSpaceOnUse">
<stop stop-color="#5D5B60"/>
<stop offset="1" stop-color="#5D5B60" stop-opacity="0"/>
</linearGradient>
<linearGradient id="paint13_linear_6_45" x1="13.995" y1="5.12498" x2="13.995" y2="4.6953" gradientUnits="userSpaceOnUse">
<stop stop-color="#48464A"/>
<stop offset="1" stop-color="#48464A" stop-opacity="0"/>
</linearGradient>
<linearGradient id="paint14_linear_6_45" x1="18.5627" y1="11.0948" x2="9.3829" y2="11.0948" gradientUnits="userSpaceOnUse">
<stop stop-color="#867894"/>
<stop offset="1" stop-color="#645A70"/>
</linearGradient>
<linearGradient id="paint15_linear_6_45" x1="10.0799" y1="10.495" x2="19.005" y2="10.495" gradientUnits="userSpaceOnUse">
<stop stop-color="#4CC5FF"/>
<stop offset="1" stop-color="#5CD9FF"/>
</linearGradient>
<linearGradient id="paint16_linear_6_45" x1="20.2751" y1="23.159" x2="21.2919" y2="22.3906" gradientUnits="userSpaceOnUse">
<stop offset="0.0701989" stop-color="#6E3E5A"/>
<stop offset="1" stop-color="#865761" stop-opacity="0"/>
</linearGradient>
<linearGradient id="paint17_linear_6_45" x1="8.2646" y1="21.4597" x2="6.46244" y2="23.9088" gradientUnits="userSpaceOnUse">
<stop offset="0.0701989" stop-color="#663A59"/>
<stop offset="1" stop-color="#865761" stop-opacity="0"/>
</linearGradient>
</defs>
</svg>
