<?xml version="1.0" encoding="UTF-8"?>
<svg width="40" height="40" data-name="图层 1" version="1.1" viewBox="0 0 40 40" xmlns="http://www.w3.org/2000/svg"><defs><style>.cls-1{stroke:#f2f2f2;}.cls-1,.cls-3{stroke-miterlimit:10;}.cls-2,.cls-3{fill:#fff;}.cls-3{stroke:#000;stroke-width:0.25px;}</style></defs><title>travelling</title><g><path class="cls-2" d="m13 9.1a3.7 3.7 0 0 0-3.7 3.7v3.9 0.25a4.3 4.3 0 0 1 0.45-0.26 0.37 0.37 0 0 0 0.22-0.4v-3.1a5.1 5.1 0 0 1 0.043-0.88 3 3 0 0 1 3-2.5h13a2.9 2.9 0 0 1 0.54 0 3 3 0 0 1 2.6 3.2v3.3a0.24 0.24 0 0 0 0.066 0.17c0.18 0.12 0.37 0.22 0.6 0.36v-2.7h1.8a13 13 0 0 1 3.2 0.34 3.5 3.5 0 0 1 1.5 0.7 0.83 0.83 0 0 1 0.27 1.1 4.2 4.2 0 0 1-0.59 0.95 9.1 9.1 0 0 1-2.1 1.8 34 34 0 0 1-6.7 3.4 0.36 0.36 0 0 1-0.27 0 2.1 2.1 0 0 0-3 1 0.44 0.44 0 0 1-0.29 0.25c-1.9 0.6-3.8 1.1-5.7 1.5-0.97 0.21-1.9 0.38-3 0.59a2.3 2.3 0 0 0 0.53-1.8 2.1 2.1 0 0 0-0.94-1.5 2.2 2.2 0 0 0-2.8 0.28 2.1 2.1 0 0 0-0.62 1.4 2.2 2.2 0 0 0 0.97 1.9l-2.1 0.15v-0.17-2.4c0-0.099-0.016-0.24-0.082-0.29a5 5 0 0 0-0.6-0.37v3.2h-1.4a13 13 0 0 1-2.9-0.35 3.8 3.8 0 0 1-1.7-0.78 0.91 0.91 0 0 1-0.25-1.1 3.5 3.5 0 0 1 0.88-1.3 12 12 0 0 1 2.8-2.1c1.2-0.65 2.4-1.3 3.6-1.9 0.091-0.05 0.24-0.11 0.24-0.18a5.7 5.7 0 0 0 0-0.65l-0.17 0.059c-0.57 0.25-1.1 0.49-1.7 0.75a22 22 0 0 0-5 3.1 5.1 5.1 0 0 0-1.4 1.7 1.7 1.7 0 0 0 0.64 2.2 5.2 5.2 0 0 0 1.7 0.68 17 17 0 0 0 4.5 0.4c0.17 0 0.25 0.033 0.31 0.21a3.6 3.6 0 0 0 3.5 2.4h0.83l-0.63 0.65-0.11 0.12c-0.19 0.22-0.22 0.41-0.051 0.56 0.17 0.15 0.36 0.11 0.55-0.11 0.33-0.38 0.65-0.76 1-1.1a0.56 0.56 0 0 1 0.35-0.16h9.1a0.45 0.45 0 0 1 0.38 0.17c0.34 0.41 0.69 0.79 1 1.2a0.33 0.33 0 0 0 0.51 0.049 0.36 0.36 0 0 0 0-0.5l-0.63-0.71-0.14-0.18a2 2 0 0 0 0.22 0 10 10 0 0 0 1.6-0.11 3.6 3.6 0 0 0 2.8-3.3v-2.8a1.7 1.7 0 0 0 0-0.17c-0.16 0.083-0.28 0.17-0.42 0.23a0.36 0.36 0 0 0-0.23 0.39c0 0.83 0.066 1.7 0 2.5a2.9 2.9 0 0 1-2.8 2.6h-2.3-11a3.1 3.1 0 0 1-2.2-0.79 2.9 2.9 0 0 1-0.77-1.1 57 57 0 0 0 13-2.6 2.2 2.2 0 0 0 1.7 2 2 2 0 0 0 2.1-0.64 2.1 2.1 0 0 0 0.14-2.7l0.16-0.074c0.89-0.37 1.7-0.72 2.5-1.1a23 23 0 0 0 5.3-3.2 5.6 5.6 0 0 0 1.5-1.8 1.7 1.7 0 0 0-0.56-2.2 4.9 4.9 0 0 0-1.8-0.75 18 18 0 0 0-4.6-0.38h-0.33c-0.033-0.51-0.024-0.9-0.09-1.3a3.6 3.6 0 0 0-3.6-3.1h-13zm0.32 14a1.7 1.7 0 0 1 1.7 1.7v0.018a1.7 1.7 0 0 1-1.7 1.7 1.7 1.7 0 0 1-1.7-1.7 1.7 1.7 0 0 1 1.7-1.7zm13 0a1.7 1.7 0 0 1 1.7 1.7v0.016a1.7 1.7 0 0 1-1.7 1.7 1.7 1.7 0 0 1-1.7-1.7 1.7 1.7 0 0 1 1.7-1.7z" stroke-width=".83"/><path class="cls-2" d="m18 12a0.83 0.83 0 0 0-0.11 2e-3h-3-2.5a0.88 0.88 0 0 0-0.96 0.94v6.7a0.83 0.83 0 0 0 0.91 0.89h5.5a0.89 0.89 0 0 0 0.93-0.94v-2.3-1.2l1.6-0.44c0.058-0.017 0.15-0.075 0.15-0.12v-0.6l-1.8 0.45v-2.4a0.83 0.83 0 0 0-0.79-0.91zm-5.2 0.63c0.027-4.4e-4 0.054-8.7e-4 0.082 2e-3h2.1 2.5c0.43-0.038 0.79 0.34 0.74 0.78 0.018 4.6 0.027 1.4 0.027 5.7 0.02 0.45-0.33 0.82-0.77 0.8h-4.6c-0.43 0.046-0.79-0.32-0.76-0.77v-5.7c-0.03-0.44 0.3-0.8 0.71-0.8z"/><path class="cls-2" d="m27 12a0.83 0.83 0 0 0-0.11 0.016h-5.4a0.83 0.83 0 0 0-0.98 0.98v6.6a0.83 0.83 0 0 0 0.83 0.83h5.7a0.99 0.99 0 0 0 0.46-0.12 0.91 0.91 0 0 0 0.41-0.89v-5.2l0.58-0.074v-0.62h-0.59a6.5 6.5 0 0 0 0.025-0.66 0.83 0.83 0 0 0-0.88-0.92zm-5.2 0.62c0.027-4.4e-4 0.056 0.0011 0.084 0.0039h2.1 2.5c0.43-0.038 0.79 0.34 0.74 0.78 0.018 4.6 0.029 1.4 0.029 5.7 0.02 0.45-0.34 0.82-0.77 0.8h-4.6c-0.43 0.046-0.79-0.32-0.76-0.77v-5.7c-0.03-0.44 0.3-0.8 0.71-0.81z"/></g></svg>
